HIERARCHY
ROOT Hips
{
  OFFSET -10.272 24.508 -245.592
  CHANNELS 6 Xposition Yposition Zposition Zrotation Xrotation Yrotation
  JOINT LeftUpLeg
  {
    OFFSET 6.263 -6.038 1.478
    CHANNELS 6 Xposition Yposition Zposition Zrotation Xrotation Yrotation
    JOINT LeftLeg
    {
      OFFSET -0.000 -50.053 0.000
      CHANNELS 6 Xposition Yposition Zposition Zrotation Xrotation Yrotation
      JOINT LeftFoot
      {
        OFFSET 0.000 -37.940 -0.000
        CHANNELS 6 Xposition Yposition Zposition Zrotation Xrotation Yrotation
        End Site
        {
          OFFSET 0.000 -7.935 4.582
        }
      }
    }
  }
  JOINT RightUpLeg
  {
    OFFSET -6.451 -6.175 3.384
    CHANNELS 6 Xposition Yposition Zposition Zrotation Xrotation Yrotation
    JOINT RightLeg
    {
      OFFSET -0.000 -51.751 0.000
      CHANNELS 6 Xposition Yposition Zposition Zrotation Xrotation Yrotation
      JOINT RightFoot
      {
        OFFSET 0.000 -36.516 -0.000
        CHANNELS 6 Xposition Yposition Zposition Zrotation Xrotation Yrotation
        End Site
        {
          OFFSET 0.000 -8.206 4.738
        }
      }
    }
  }
  JOINT Spine
  {
    OFFSET 0.000 5.708 -5.708
    CHANNELS 6 Xposition Yposition Zposition Zrotation Xrotation Yrotation
    JOINT LeftShoulder
    {
      OFFSET -0.000 34.693 0.000
      CHANNELS 6 Xposition Yposition Zposition Zrotation Xrotation Yrotation
      JOINT LeftArm
      {
        OFFSET 13.804 0.000 -0.000
        CHANNELS 6 Xposition Yposition Zposition Zrotation Xrotation Yrotation
        JOINT LeftForeArm
        {
          OFFSET 21.101 0.000 0.000
          CHANNELS 6 Xposition Yposition Zposition Zrotation Xrotation Yrotation
          JOINT LeftHand
          {
            OFFSET 24.070 -0.000 -0.000
            CHANNELS 6 Xposition Yposition Zposition Zrotation Xrotation Yrotation
            JOINT LeftHandThumb1
            {
            OFFSET 4.970 -0.620 3.390
            CHANNELS 6 Xposition Yposition Zposition Zrotation Xrotation Yrotation
              JOINT LeftHandThumb2
              {
              OFFSET 2.150 -0.000 0.000
              CHANNELS 6 Xposition Yposition Zposition Zrotation Xrotation Yrotation
                JOINT LeftHandThumb3
                {
                OFFSET 2.200 -0.000 0.000
                CHANNELS 6 Xposition Yposition Zposition Zrotation Xrotation Yrotation
                  JOINT LeftHandThumb4
                  {
                  OFFSET 1.700 -0.000 0.000
                  CHANNELS 6 Xposition Yposition Zposition Zrotation Xrotation Yrotation
                  }
                }
              }
            }
            JOINT LeftHandIndex1
            {
            OFFSET 8.730 0.680 2.070
            CHANNELS 6 Xposition Yposition Zposition Zrotation Xrotation Yrotation
              JOINT LeftHandIndex2
              {
              OFFSET 2.670 -0.000 0.000
              CHANNELS 6 Xposition Yposition Zposition Zrotation Xrotation Yrotation
                JOINT LeftHandIndex3
                {
                OFFSET 2.130 -0.000 0.000
                CHANNELS 6 Xposition Yposition Zposition Zrotation Xrotation Yrotation
                  JOINT LeftHandIndex4
                  {
                  OFFSET 1.800 -0.000 0.000
                  CHANNELS 6 Xposition Yposition Zposition Zrotation Xrotation Yrotation
                  }
                }
              }
            }
            JOINT LeftHandMiddle1
            {
            OFFSET 9.220 0.670 0.550
            CHANNELS 6 Xposition Yposition Zposition Zrotation Xrotation Yrotation
              JOINT LeftHandMiddle2
              {
              OFFSET 2.660 -0.000 0.000
              CHANNELS 6 Xposition Yposition Zposition Zrotation Xrotation Yrotation
                JOINT LeftHandMiddle3
                {
                OFFSET 2.280 -0.000 0.000
                CHANNELS 6 Xposition Yposition Zposition Zrotation Xrotation Yrotation
                  JOINT LeftHandMiddle4
                  {
                  OFFSET 1.500 -0.000 0.000
                  CHANNELS 6 Xposition Yposition Zposition Zrotation Xrotation Yrotation
                  }
                }
              }
            }
            JOINT LeftHandRing1
            {
            OFFSET 9.250 0.670 -1.130
            CHANNELS 6 Xposition Yposition Zposition Zrotation Xrotation Yrotation
              JOINT LeftHandRing2
              {
              OFFSET 2.470 -0.000 0.000
              CHANNELS 6 Xposition Yposition Zposition Zrotation Xrotation Yrotation
                JOINT LeftHandRing3
                {
                OFFSET 2.210 -0.000 0.000
                CHANNELS 6 Xposition Yposition Zposition Zrotation Xrotation Yrotation
                  JOINT LeftHandRing4
                  {
                  OFFSET 1.800 -0.000 0.000
                  CHANNELS 6 Xposition Yposition Zposition Zrotation Xrotation Yrotation
                  }
                }
              }
            }
            JOINT LeftHandPinky1
            {
            OFFSET 9.350 0.660 -2.720
            CHANNELS 6 Xposition Yposition Zposition Zrotation Xrotation Yrotation
              JOINT LeftHandPinky2
              {
              OFFSET 1.630 -0.000 0.000
              CHANNELS 6 Xposition Yposition Zposition Zrotation Xrotation Yrotation
                JOINT LeftHandPinky3
                {
                OFFSET 1.710 -0.000 0.000
                CHANNELS 6 Xposition Yposition Zposition Zrotation Xrotation Yrotation
                  JOINT LeftHandPinky4
                  {
                  OFFSET 1.800 -0.000 0.000
                  CHANNELS 6 Xposition Yposition Zposition Zrotation Xrotation Yrotation
                  }
                }
              }
            }
          }
        }
      }
    }
    JOINT RightShoulder
    {
      OFFSET -0.000 34.693 0.000
      CHANNELS 6 Xposition Yposition Zposition Zrotation Xrotation Yrotation
      JOINT RightArm
      {
        OFFSET -19.648 0.000 -0.000
        CHANNELS 6 Xposition Yposition Zposition Zrotation Xrotation Yrotation
        JOINT RightForeArm
        {
          OFFSET -19.535 0.000 0.000
          CHANNELS 6 Xposition Yposition Zposition Zrotation Xrotation Yrotation
          JOINT RightHand
          {
            OFFSET -23.606 0.000 -0.000
            CHANNELS 6 Xposition Yposition Zposition Zrotation Xrotation Yrotation
            JOINT RightHandThumb1
            {
            OFFSET -4.970 -0.620 3.390
            CHANNELS 6 Xposition Yposition Zposition Zrotation Xrotation Yrotation
              JOINT RightHandThumb2
              {
              OFFSET -2.150 0.000 0.000
              CHANNELS 6 Xposition Yposition Zposition Zrotation Xrotation Yrotation
                JOINT RightHandThumb3
                {
                OFFSET -2.200 0.000 0.000
                CHANNELS 6 Xposition Yposition Zposition Zrotation Xrotation Yrotation
                  JOINT RightHandThumb4
                  {
                  OFFSET -1.700 0.000 0.000
                  CHANNELS 6 Xposition Yposition Zposition Zrotation Xrotation Yrotation
                  }
                }
              }
            }
            JOINT RightHandIndex1
            {
            OFFSET -8.730 0.680 2.070
            CHANNELS 6 Xposition Yposition Zposition Zrotation Xrotation Yrotation
              JOINT RightHandIndex2
              {
              OFFSET -2.670 0.000 0.000
              CHANNELS 6 Xposition Yposition Zposition Zrotation Xrotation Yrotation
                JOINT RightHandIndex3
                {
                OFFSET -2.130 0.000 0.000
                CHANNELS 6 Xposition Yposition Zposition Zrotation Xrotation Yrotation
                  JOINT RightHandIndex4
                  {
                  OFFSET -1.800 0.000 0.000
                  CHANNELS 6 Xposition Yposition Zposition Zrotation Xrotation Yrotation
                  }
                }
              }
            }
            JOINT RightHandMiddle1
            {
            OFFSET -9.220 0.670 0.550
            CHANNELS 6 Xposition Yposition Zposition Zrotation Xrotation Yrotation
              JOINT RightHandMiddle2
              {
              OFFSET -2.660 0.000 0.000
              CHANNELS 6 Xposition Yposition Zposition Zrotation Xrotation Yrotation
                JOINT RightHandMiddle3
                {
                OFFSET -2.280 0.000 0.000
                CHANNELS 6 Xposition Yposition Zposition Zrotation Xrotation Yrotation
                  JOINT RightHandMiddle4
                  {
                  OFFSET -1.500 0.000 0.000
                  CHANNELS 6 Xposition Yposition Zposition Zrotation Xrotation Yrotation
                  }
                }
              }
            }
            JOINT RightHandRing1
            {
            OFFSET -9.250 0.670 -1.130
            CHANNELS 6 Xposition Yposition Zposition Zrotation Xrotation Yrotation
              JOINT RightHandRing2
              {
              OFFSET -2.470 0.000 0.000
              CHANNELS 6 Xposition Yposition Zposition Zrotation Xrotation Yrotation
                JOINT RightHandRing3
                {
                OFFSET -2.210 0.000 0.000
                CHANNELS 6 Xposition Yposition Zposition Zrotation Xrotation Yrotation
                  JOINT RightHandRing4
                  {
                  OFFSET -1.800 0.000 0.000
                  CHANNELS 6 Xposition Yposition Zposition Zrotation Xrotation Yrotation
                  }
                }
              }
            }
            JOINT RightHandPinky1
            {
            OFFSET -9.350 0.660 -2.720
            CHANNELS 6 Xposition Yposition Zposition Zrotation Xrotation Yrotation
              JOINT RightHandPinky2
              {
              OFFSET -1.630 0.000 0.000
              CHANNELS 6 Xposition Yposition Zposition Zrotation Xrotation Yrotation
                JOINT RightHandPinky3
                {
                OFFSET -1.710 0.000 0.000
                CHANNELS 6 Xposition Yposition Zposition Zrotation Xrotation Yrotation
                  JOINT RightHandPinky4
                  {
                  OFFSET -1.800 0.000 0.000
                  CHANNELS 6 Xposition Yposition Zposition Zrotation Xrotation Yrotation
                  }
                }
              }
            }
          }
        }
      }
    }
    JOINT Neck
    {
      OFFSET -0.000 34.693 0.000
      CHANNELS 6 Xposition Yposition Zposition Zrotation Xrotation Yrotation
      JOINT Head
      {
        OFFSET -0.000 19.788 -0.000
        CHANNELS 6 Xposition Yposition Zposition Zrotation Xrotation Yrotation
        End Site
        {
          OFFSET -0.000 0.079 -0.000
        }
      }
    }
  }
}
MOTION
Frames:	6
Frame Time:	0.0333333
3.56293 28.8661 -292.233 0.226329 1.31923 3.89517 5.80153 -6.5504 0.384212 0.396502 5.12316 9.70415 5.96046e-06 -55.6727 -4.76837e-05 -1.6962 -11.6682 -0.343143 5.96046e-06 -33.5871 0 -3.1949 -2.44722 -1.86941 -6.3663 -6.50685 2.48466 1.94202 9.46579 9.32637 -5.96046e-06 -57.9464 4.76837e-05 3.45536 -5.8277 0.351268 0 -32.7187 -7.15256e-05 -6.55449 -17.7593 -5.19803 4.47035e-06 6.14594 -6.14595 -2.34515 -1.99566 3.43576 -8.9407e-06 34.6935 2.38419e-05 -25.9124 1.32335e-05 -7.16263 15.6846 1.19209e-05 2.38419e-05 -38.7402 35.4305 -9.62508 21.4086 -1.19209e-05 -4.76837e-05 0.000213119 1.70756e-06 -86.3259 22.1484 1.19209e-05 0 -36.2969 -1.08704 48.2267 0.0062 0.0497 0.0339 0 0 0 0 0.0215 0 0 0 0 0 0.022 0 0 0 0 0 0.017 0 0 0 0 -0.0068 0.0873 0.0207 0 0 0 0 0.0267 0 0 0 0 0 0.0213 0 0 0 0 0 0.018 0 0 0 0 -0.0067 0.0922 0.0055 0 0 0 0 0.0266 0 0 0 0 0 0.0228 0 0 0 0 0 0.015 0 0 0 0 -0.0067 0.0925 -0.0113 0 0 0 0 0.0247 0 0 0 0 0 0.0221 0 0 0 0 0 0.018 0 0 0 0 -0.0066 0.0935 -0.0272 0 0 0 0 0.0163 0 0 0 0 0 0.0171 0 0 0 0 0 0.018 0 0 0 0 -8.9407e-06 34.6935 2.38419e-05 33.8981 -3.41509e-06 6.31252 -17.7865 2.98023e-06 -4.76837e-05 48.8527 5.96554 -24.0764 -25.2833 -1.19209e-05 9.53674e-05 -2.12223e-07 5.12264e-06 38.0224 -26.7421 1.78814e-05 -4.76837e-05 -23.9731 0.0359788 -23.5846 -0.0062 0.0497 0.0339 0 0 0 0 0.0215 0 0 0 0 0 0.022 0 0 0 0 0 0.017 0 0 0 0 0.0068 0.0873 0.0207 0 0 0 0 0.0267 0 0 0 0 0 0.0213 0 0 0 0 0 0.018 0 0 0 0 0.0067 0.0922 0.0055 0 0 0 0 0.0266 0 0 0 0 0 0.0228 0 0 0 0 0 0.015 0 0 0 0 0.0067 0.0925 -0.0113 0 0 0 0 0.0247 0 0 0 0 0 0.0221 0 0 0 0 0 0.018 0 0 0 0 0.0066 0.0935 -0.0272 0 0 0 0 0.0163 0 0 0 0 0 0.0171 0 0 0 0 0 0.018 0 0 0 0 -8.9407e-06 34.6935 2.38419e-05 7.20452 14.3087 -1.78943 -5.96046e-06 19.9335 -4.76837e-05 1.01386e-05 -9.39151e-06 -1.70755e-06 
3.56293 28.8661 -292.233 0.226329 1.31923 3.89517 5.80153 -6.5504 0.384212 0.396502 5.12316 9.70415 5.96046e-06 -55.6727 -4.76837e-05 -1.6962 -11.6682 -0.343143 5.96046e-06 -33.5871 0 -3.1949 -2.44722 -1.86941 -6.3663 -6.50685 2.48466 1.94202 9.46579 9.32637 -5.96046e-06 -57.9464 4.76837e-05 3.45536 -5.8277 0.351268 0 -32.7187 -7.15256e-05 -6.55449 -17.7593 -5.19803 4.47035e-06 6.14594 -6.14595 -2.34515 -1.99566 3.43576 -8.9407e-06 34.6935 2.38419e-05 -25.9124 1.32335e-05 -7.16263 15.6846 1.19209e-05 2.38419e-05 -38.7402 35.4305 -9.62508 21.4086 -1.19209e-05 -4.76837e-05 0.000213119 1.70756e-06 -86.3259 22.1484 1.19209e-05 0 -36.2969 -1.08704 48.2267 0.0062 0.0497 0.0339 0 0 0 0 0.0215 0 0 0 0 0 0.022 0 0 0 0 0 0.017 0 0 0 0 -0.0068 0.0873 0.0207 0 0 0 0 0.0267 0 0 0 0 0 0.0213 0 0 0 0 0 0.018 0 0 0 0 -0.0067 0.0922 0.0055 0 0 0 0 0.0266 0 0 0 0 0 0.0228 0 0 0 0 0 0.015 0 0 0 0 -0.0067 0.0925 -0.0113 0 0 0 0 0.0247 0 0 0 0 0 0.0221 0 0 0 0 0 0.018 0 0 0 0 -0.0066 0.0935 -0.0272 0 0 0 0 0.0163 0 0 0 0 0 0.0171 0 0 0 0 0 0.018 0 0 0 0 -8.9407e-06 34.6935 2.38419e-05 33.8981 -3.41509e-06 6.31252 -17.7865 2.98023e-06 -4.76837e-05 48.8527 5.96554 -24.0764 -25.2833 -1.19209e-05 9.53674e-05 -2.12223e-07 5.12264e-06 38.0224 -26.7421 1.78814e-05 -4.76837e-05 -23.9731 0.0359788 -23.5846 -0.0062 0.0497 0.0339 0 0 0 0 0.0215 0 0 0 0 0 0.022 0 0 0 0 0 0.017 0 0 0 0 0.0068 0.0873 0.0207 0 0 0 0 0.0267 0 0 0 0 0 0.0213 0 0 0 0 0 0.018 0 0 0 0 0.0067 0.0922 0.0055 0 0 0 0 0.0266 0 0 0 0 0 0.0228 0 0 0 0 0 0.015 0 0 0 0 0.0067 0.0925 -0.0113 0 0 0 0 0.0247 0 0 0 0 0 0.0221 0 0 0 0 0 0.018 0 0 0 0 0.0066 0.0935 -0.0272 0 0 0 0 0.0163 0 0 0 0 0 0.0171 0 0 0 0 0 0.018 0 0 0 0 -8.9407e-06 34.6935 2.38419e-05 7.20452 14.3087 -1.78943 -5.96046e-06 19.9335 -4.76837e-05 1.01386e-05 -9.39151e-06 -1.70755e-06 
3.55906 28.6605 -292.092 0.64957 1.59385 3.27933 5.75901 -6.52346 0.37508 -0.164834 5.00642 9.8846 -5.96046e-06 -55.5029 4.76837e-05 -1.49578 -11.5114 -0.298572 1.19209e-05 -33.7039 -2.38419e-05 -3.39089 -2.73036 -2.02239 -6.35513 -6.37698 2.5039 1.4258 9.28998 9.51212 0 -57.9115 0 2.62101 -7.12244 0.325208 1.19209e-05 -33.154 -2.38419e-05 -7.03679 -17.6554 -5.65159 5.96046e-06 6.19237 -6.19228 -2.54517 -2.30987 3.80715 -2.98023e-06 34.6935 -4.76837e-05 -25.4266 1.10991e-05 -6.80197 15.5948 1.78814e-05 -2.38419e-05 -39.1261 35.5027 -9.59703 21.4783 -2.38419e-05 -2.38419e-05 0.000224917 8.53775e-06 -86.522 22.2122 -2.38419e-05 1.78814e-05 -36.1826 -0.868609 47.4176 0.0062 0.0497 0.0339 0 0 0 0 0.0215 0 0 0 0 0 0.022 0 0 0 0 0 0.017 0 0 0 0 -0.0068 0.0873 0.0207 0 0 0 0 0.0267 0 0 0 0 0 0.0213 0 0 0 0 0 0.018 0 0 0 0 -0.0067 0.0922 0.0055 0 0 0 0 0.0266 0 0 0 0 0 0.0228 0 0 0 0 0 0.015 0 0 0 0 -0.0067 0.0925 -0.0113 0 0 0 0 0.0247 0 0 0 0 0 0.0221 0 0 0 0 0 0.018 0 0 0 0 -0.0066 0.0935 -0.0272 0 0 0 0 0.0163 0 0 0 0 0 0.0171 0 0 0 0 0 0.018 0 0 0 0 -2.98023e-06 34.6935 -4.76837e-05 34.5399 -4.69575e-06 5.96267 -17.7802 -8.9407e-06 2.38419e-05 47.9234 6.96872 -24.172 -25.0595 5.96046e-06 -7.15256e-05 1.13766e-06 1.36604e-05 38.485 -26.7562 0 0 -24.021 0.0301259 -23.5995 -0.0062 0.0497 0.0339 0 0 0 0 0.0215 0 0 0 0 0 0.022 0 0 0 0 0 0.017 0 0 0 0 0.0068 0.0873 0.0207 0 0 0 0 0.0267 0 0 0 0 0 0.0213 0 0 0 0 0 0.018 0 0 0 0 0.0067 0.0922 0.0055 0 0 0 0 0.0266 0 0 0 0 0 0.0228 0 0 0 0 0 0.015 0 0 0 0 0.0067 0.0925 -0.0113 0 0 0 0 0.0247 0 0 0 0 0 0.0221 0 0 0 0 0 0.018 0 0 0 0 0.0066 0.0935 -0.0272 0 0 0 0 0.0163 0 0 0 0 0 0.0171 0 0 0 0 0 0.018 0 0 0 0 -2.98023e-06 34.6935 -4.76837e-05 6.57351 14.1704 -1.6159 0 20.0866 0 1.06722e-05 -9.39151e-06 0 
3.52397 28.6492 -291.979 0.659664 1.51079 3.13011 5.72782 -6.45443 0.438237 -0.193132 5.33562 9.11799 0 -55.7442 2.38419e-05 -1.35979 -11.7308 -0.27651 1.19209e-05 -33.5635 0 -3.40622 -3.11556 -2.06796 -6.31067 -6.33668 2.38605 1.44216 9.3136 8.76014 5.96046e-06 -57.9971 0 2.15581 -7.45946 0.280007 5.96046e-06 -33.4223 -7.15256e-05 -7.04199 -17.6377 -5.72173 -1.49012e-06 6.18696 -6.18696 -2.44516 -2.25568 3.80371 -5.96046e-06 34.6935 -2.38419e-05 -25.3026 1.19528e-05 -6.62383 15.539 1.78814e-05 2.38419e-05 -39.1717 35.5604 -9.35687 21.5264 0 0 6.16214e-05 -1.70755e-06 -86.8206 22.2636 3.57628e-05 2.38419e-05 -35.5365 -0.586463 45.8202 0.0062 0.0497 0.0339 0 0 0 0 0.0215 0 0 0 0 0 0.022 0 0 0 0 0 0.017 0 0 0 0 -0.0068 0.0873 0.0207 0 0 0 0 0.0267 0 0 0 0 0 0.0213 0 0 0 0 0 0.018 0 0 0 0 -0.0067 0.0922 0.0055 0 0 0 0 0.0266 0 0 0 0 0 0.0228 0 0 0 0 0 0.015 0 0 0 0 -0.0067 0.0925 -0.0113 0 0 0 0 0.0247 0 0 0 0 0 0.0221 0 0 0 0 0 0.018 0 0 0 0 -0.0066 0.0935 -0.0272 0 0 0 0 0.0163 0 0 0 0 0 0.0171 0 0 0 0 0 0.018 0 0 0 0 -5.96046e-06 34.6935 -2.38419e-05 34.2614 -4.9092e-06 5.81402 -17.6943 2.98023e-06 2.38419e-05 48.1581 7.40195 -24.1387 -25.1162 1.78814e-05 9.53674e-05 2.18658e-05 -3.41509e-06 38.6594 -26.7671 -1.19209e-05 2.38419e-05 -23.9456 0.0256878 -23.6802 -0.0062 0.0497 0.0339 0 0 0 0 0.0215 0 0 0 0 0 0.022 0 0 0 0 0 0.017 0 0 0 0 0.0068 0.0873 0.0207 0 0 0 0 0.0267 0 0 0 0 0 0.0213 0 0 0 0 0 0.018 0 0 0 0 0.0067 0.0922 0.0055 0 0 0 0 0.0266 0 0 0 0 0 0.0228 0 0 0 0 0 0.015 0 0 0 0 0.0067 0.0925 -0.0113 0 0 0 0 0.0247 0 0 0 0 0 0.0221 0 0 0 0 0 0.018 0 0 0 0 0.0066 0.0935 -0.0272 0 0 0 0 0.0163 0 0 0 0 0 0.0171 0 0 0 0 0 0.018 0 0 0 0 -5.96046e-06 34.6935 -2.38419e-05 6.25376 14.0595 -1.52492 -2.98023e-06 20.1449 4.76837e-05 9.28479e-06 -1.10991e-05 -4.26887e-07 
3.42693 28.7522 -291.86 -0.311517 1.26829 4.0499 5.72158 -6.23763 0.643349 1.24454 5.51235 6.70224 -2.38419e-05 -55.9253 4.76837e-05 -1.78735 -11.1064 -0.344408 1.19209e-05 -33.6579 4.76837e-05 -3.15197 -3.53955 -1.95096 -6.16555 -6.34752 2.06099 2.64708 9.25095 6.3814 0 -58.2132 -7.15256e-05 1.49112 -7.78106 0.201923 -1.19209e-05 -33.5496 2.38419e-05 -6.24231 -17.1098 -5.09121 0 6.15648 -6.1564 -1.50645 -2.03547 2.66857 5.96046e-06 34.6935 -2.38419e-05 -25.4066 1.40873e-05 -6.52327 15.4851 0 2.38419e-05 -38.9142 35.6525 -8.74487 21.5545 0 -2.38419e-05 -0.000207798 -8.53775e-06 -87.6472 22.6307 1.19209e-05 1.78814e-05 -35.1954 -0.408233 45.2673 0.0062 0.0497 0.0339 0 0 0 0 0.0215 0 0 0 0 0 0.022 0 0 0 0 0 0.017 0 0 0 0 -0.0068 0.0873 0.0207 0 0 0 0 0.0267 0 0 0 0 0 0.0213 0 0 0 0 0 0.018 0 0 0 0 -0.0067 0.0922 0.0055 0 0 0 0 0.0266 0 0 0 0 0 0.0228 0 0 0 0 0 0.015 0 0 0 0 -0.0067 0.0925 -0.0113 0 0 0 0 0.0247 0 0 0 0 0 0.0221 0 0 0 0 0 0.018 0 0 0 0 -0.0066 0.0935 -0.0272 0 0 0 0 0.0163 0 0 0 0 0 0.0171 0 0 0 0 0 0.018 0 0 0 0 5.96046e-06 34.6935 -2.38419e-05 31.4837 -3.20165e-06 5.97217 -16.9081 5.96046e-06 -4.76837e-05 50.916 7.86535 -23.385 -25.2454 1.78814e-05 -4.76837e-05 3.6171e-06 5.12264e-06 37.1439 -26.7705 2.98023e-05 2.38419e-05 -23.5229 0.0155818 -23.5104 -0.0062 0.0497 0.0339 0 0 0 0 0.0215 0 0 0 0 0 0.022 0 0 0 0 0 0.017 0 0 0 0 0.0068 0.0873 0.0207 0 0 0 0 0.0267 0 0 0 0 0 0.0213 0 0 0 0 0 0.018 0 0 0 0 0.0067 0.0922 0.0055 0 0 0 0 0.0266 0 0 0 0 0 0.0228 0 0 0 0 0 0.015 0 0 0 0 0.0067 0.0925 -0.0113 0 0 0 0 0.0247 0 0 0 0 0 0.0221 0 0 0 0 0 0.018 0 0 0 0 0.0066 0.0935 -0.0272 0 0 0 0 0.0163 0 0 0 0 0 0.0171 0 0 0 0 0 0.018 0 0 0 0 5.96046e-06 34.6935 -2.38419e-05 6.14393 13.9473 -1.48624 -5.96046e-06 20.1419 0 7.79068e-06 -1.02453e-05 4.26887e-07 
3.41154 28.7992 -291.706 0.383335 1.18596 3.27411 5.65424 -6.3143 0.495696 0.469132 5.91136 8.32322 5.96046e-06 -56.3926 4.76837e-05 -2.20951 -10.7923 -0.41393 0 -33.394 -2.38419e-05 -2.74449 -4.25823 -1.74708 -6.06832 -6.2995 2.23126 1.81084 9.62582 8.00044 -5.96046e-06 -58.5355 4.76837e-05 0.442031 -8.50639 0.0653884 1.19209e-05 -33.5327 0 -4.77277 -16.2922 -3.92999 0 6.13562 -6.13563 -2.06855 -1.87435 3.46595 0 34.6935 0 -26.0272 1.10991e-05 -7.06366 15.4626 5.96046e-06 -2.38419e-05 -38.5784 35.7133 -7.30309 21.4463 0 4.76837e-05 -0.000391585 -5.12266e-06 -89.0007 22.873 1.19209e-05 -5.96046e-06 -35.0967 -0.29792 46.0537 0.0062 0.0497 0.0339 0 0 0 0 0.0215 0 0 0 0 0 0.022 0 0 0 0 0 0.017 0 0 0 0 -0.0068 0.0873 0.0207 0 0 0 0 0.0267 0 0 0 0 0 0.0213 0 0 0 0 0 0.018 0 0 0 0 -0.0067 0.0922 0.0055 0 0 0 0 0.0266 0 0 0 0 0 0.0228 0 0 0 0 0 0.015 0 0 0 0 -0.0067 0.0925 -0.0113 0 0 0 0 0.0247 0 0 0 0 0 0.0221 0 0 0 0 0 0.018 0 0 0 0 -0.0066 0.0935 -0.0272 0 0 0 0 0.0163 0 0 0 0 0 0.0171 0 0 0 0 0 0.018 0 0 0 0 0 34.6935 0 34.105 -4.69576e-06 6.3507 -17.1902 8.9407e-06 -7.15256e-05 47.9472 8.97064 -25.6311 -24.8365 0 4.76837e-05 2.70482e-06 6.83019e-06 39.0459 -26.7813 1.19209e-05 0 -22.6788 0.00601153 -23.4536 -0.0062 0.0497 0.0339 0 0 0 0 0.0215 0 0 0 0 0 0.022 0 0 0 0 0 0.017 0 0 0 0 0.0068 0.0873 0.0207 0 0 0 0 0.0267 0 0 0 0 0 0.0213 0 0 0 0 0 0.018 0 0 0 0 0.0067 0.0922 0.0055 0 0 0 0 0.0266 0 0 0 0 0 0.0228 0 0 0 0 0 0.015 0 0 0 0 0.0067 0.0925 -0.0113 0 0 0 0 0.0247 0 0 0 0 0 0.0221 0 0 0 0 0 0.018 0 0 0 0 0.0066 0.0935 -0.0272 0 0 0 0 0.0163 0 0 0 0 0 0.0171 0 0 0 0 0 0.018 0 0 0 0 0 34.6935 0 5.97364 13.532 -1.40257 5.96046e-06 20.1829 2.38419e-05 8.8579e-06 -9.39151e-06 8.53773e-07 
